<?xml version="1.0" encoding="UTF-8" standalone="no" ?>
<!DOCTYPE svg PUBLIC "-//W3C//DTD SVG 1.1//EN" "http://www.w3.org/Graphics/SVG/1.1/DTD/svg11.dtd">
<svg xmlns="http://www.w3.org/2000/svg" xmlns:xlink="http://www.w3.org/1999/xlink" version="1.1" width="1280" height="1024" viewBox="0 0 1280 1024" xml:space="preserve">
<desc>Created with Fabric.js 3.6.3</desc>
<defs>
</defs>
<g transform="matrix(1.9662058371735787 0 0 1.9662058371735787 640.2456813819576 512.1966205837173)" id="background-logo"  >
<rect style="stroke: none; stroke-width: 1; stroke-dasharray: none; stroke-linecap: butt; stroke-dashoffset: 0; stroke-linejoin: miter; stroke-miterlimit: 4; fill: rgb(255,255,255); fill-rule: nonzero; opacity: 1;"  paint-order="stroke"  x="-325" y="-260" rx="0" ry="0" width="650" height="520" />
</g>
<g transform="matrix(1.9699870022450665 0 0 1.9699870022450665 640.2456813819576 388.7180457356066)" id="logo-logo"  >
<g style=""  paint-order="stroke"   >
		<g transform="matrix(-2.527881992350013 0 0 -2.527881992350013 0 2.842171e-14)"  >
<g style=""  paint-order="stroke"   >
		<g transform="matrix(1 0 0 1 0 0)"  >
<linearGradient id="SVGID_414323" gradientUnits="userSpaceOnUse" gradientTransform="matrix(1 0 0 1 0 0)"  x1="0" y1="0" x2="0" y2="136">
<stop offset="0%" style="stop-color:rgb(250,217,97);stop-opacity: 1"/>
<stop offset="100%" style="stop-color:rgb(247,107,28);stop-opacity: 1"/>
</linearGradient>
<path style="stroke: none; stroke-width: 1; stroke-dasharray: none; stroke-linecap: butt; stroke-dashoffset: 0; stroke-linejoin: miter; stroke-miterlimit: 4; fill: url(#SVGID_414323); fill-rule: nonzero; opacity: 1;"  paint-order="stroke"  transform=" translate(-35, -50.050000000000004)" d="M 35 0 C 15.7 0 0 15.8 0 35.2 c 0 6.5 1.8 12.9 5.2 18.5 l 27.8 45 c 0.5 0.9 1.5 1.4 2.5 1.4 c 0 0 0 0 0 0 c 1 0 2 -0.5 2.5 -1.4 l 27.1 -45.4 c 3.2 -5.4 4.9 -11.7 4.9 -18 C 70 15.8 54.3 0 35 0 z M 35 46.9 c -6.5 0 -11.7 -5.3 -11.7 -11.8 c 0 -6.5 5.3 -11.8 11.7 -11.8 s 11.7 5.3 11.7 11.8 C 46.7 41.5 41.6 46.9 35 46.9 z" stroke-linecap="round" />
</g>
</g>
</g>
		<g transform="matrix(0.7025374284793776 0 0 0.7025374284793776 0.08917924887094841 37.54525050925744)"  >
<g style=""  paint-order="stroke"   >
		<g transform="matrix(1 0 0 1 0 0)"  >
<path style="stroke: none; stroke-width: 1; stroke-dasharray: none; stroke-linecap: butt; stroke-dashoffset: 0; stroke-linejoin: miter; stroke-miterlimit: 4; fill: rgb(255,255,255); fill-rule: nonzero; opacity: 1;"  paint-order="stroke"  transform=" translate(-100, -100)" d="M 200 100 A 100 100 0 0 1 100 200 A 100 100 0 0 1 0 100 A 100 100 0 0 1 100 0 A 100 100 0 0 1 200 100 Z" stroke-linecap="round" />
</g>
</g>
</g>
</g>
</g>
<g transform="matrix(1.9699870022450665 0 0 1.9699870022450665 640.5472394509048 736.4078889623045)" id="text-logo-path"  >
<path style="stroke: none; stroke-width: 1; stroke-dasharray: none; stroke-linecap: butt; stroke-dashoffset: 0; stroke-linejoin: miter; stroke-miterlimit: 10; fill: rgb(255,145,77); fill-rule: nonzero; opacity: 1;"  paint-order="stroke"  transform=" translate(-126.025, 19.035)" d="M 2.34 -16.37 L 2.34 -16.37 L 11.69 -16.37 Q 11.69 -12.27 13.33 -10.13 Q 14.97 -7.99 17.9 -7.99 L 17.9 -7.99 Q 20.85 -7.99 22.45 -10.19 Q 24.05 -12.39 24.05 -16.75 L 24.05 -16.75 L 24.05 -38.77 L 33.45 -38.77 L 33.45 -16.75 Q 33.45 -8.68 29.5 -3.99 Q 25.55 0.7 17.9 0.7 L 17.9 0.7 Q 14.7 0.7 11.83 -0.57 Q 8.96 -1.84 6.87 -4.06 Q 4.79 -6.29 3.56 -9.49 Q 2.34 -12.69 2.34 -16.37 Z M 44.09 0 L 34.18 0 L 50.77 -38.77 L 61.17 -38.77 L 77.82 0 L 67.85 0 L 65.35 -6.04 L 46.65 -6.04 L 44.09 0 Z M 56.05 -28.17 L 49.9 -13.69 L 62.09 -13.69 L 56.05 -28.17 Z M 93.52 0 L 84.16 0 L 84.16 -38.77 L 94.52 -38.77 L 108.04 -10.33 L 121.49 -38.77 L 131.92 -38.77 L 131.92 0 L 122.52 0 L 122.52 -19.79 L 113.22 0 L 102.78 0 L 93.52 -19.79 L 93.52 0 Z M 170.22 0 L 140.52 0 L 140.52 -38.77 L 170.22 -38.77 L 170.22 -30.09 L 149.88 -30.09 L 149.88 -23.43 L 166.85 -23.43 L 166.85 -15.34 L 149.88 -15.34 L 149.88 -8.66 L 170.22 -8.66 L 170.22 0 Z M 207.49 0 L 177.79 0 L 177.79 -38.77 L 207.49 -38.77 L 207.49 -30.09 L 187.14 -30.09 L 187.14 -23.43 L 204.12 -23.43 L 204.12 -15.34 L 187.14 -15.34 L 187.14 -8.66 L 207.49 -8.66 L 207.49 0 Z M 226.5 -30.09 L 212.78 -30.09 L 212.78 -38.77 L 249.71 -38.77 L 249.71 -30.09 L 235.96 -30.09 L 235.96 0 L 226.5 0 L 226.5 -30.09 Z" stroke-linecap="round" />
</g>
<g transform="matrix(1.9699870022450665 0 0 1.9699870022450665 641.9001626533744 834.0534639011269)" id="tagline-fc76cd91-911e-4827-afcd-44214c9dcca0-logo-path"  >
<path style="stroke: rgb(255,255,255); stroke-width: 0; stroke-dasharray: none; stroke-linecap: butt; stroke-dashoffset: 0; stroke-linejoin: miter; stroke-miterlimit: 4; fill: rgb(255,145,77); fill-rule: nonzero; opacity: 1;"  paint-order="stroke"  transform=" translate(-178.38, 14.615)" d="M 10.14 0 L 3.04 0 L 3.04 -29.25 L 16.54 -29.25 Q 19.25 -29.25 21.42 -28.29 Q 23.58 -27.34 24.91 -25.73 Q 26.25 -24.12 26.95 -22.14 Q 27.65 -20.16 27.65 -17.97 L 27.65 -17.97 Q 27.65 -16.23 27.22 -14.58 Q 26.79 -12.93 25.88 -11.48 Q 24.96 -10.04 23.66 -8.95 Q 22.36 -7.87 20.52 -7.24 Q 18.69 -6.61 16.5 -6.61 L 16.5 -6.61 L 10.14 -6.61 L 10.14 0 Z M 10.14 -22.7 L 10.14 -13.12 L 15.75 -13.12 Q 17.93 -13.12 19.22 -14.38 Q 20.51 -15.64 20.51 -17.97 L 20.51 -17.97 Q 20.51 -20.26 19.23 -21.46 Q 17.95 -22.65 15.75 -22.7 L 15.75 -22.7 L 10.14 -22.7 Z M 55.47 0 L 33.07 0 L 33.07 -29.25 L 55.47 -29.25 L 55.47 -22.7 L 40.12 -22.7 L 40.12 -17.68 L 52.93 -17.68 L 52.93 -11.57 L 40.12 -11.57 L 40.12 -6.53 L 55.47 -6.53 L 55.47 0 Z M 58.22 -14.61 L 58.22 -14.61 Q 58.22 -17.68 59.41 -20.47 Q 60.59 -23.26 62.61 -25.3 Q 64.63 -27.34 67.42 -28.54 Q 70.21 -29.75 73.3 -29.75 L 73.3 -29.75 Q 76.34 -29.75 79.14 -28.54 Q 81.95 -27.34 83.96 -25.3 Q 85.98 -23.26 87.19 -20.46 Q 88.39 -17.66 88.39 -14.61 L 88.39 -14.61 Q 88.39 -11.55 87.2 -8.74 Q 86 -5.94 83.97 -3.92 Q 81.95 -1.89 79.14 -0.68 Q 76.34 0.52 73.3 0.52 L 73.3 0.52 Q 69.18 0.52 65.71 -1.51 Q 62.23 -3.55 60.23 -7.02 Q 58.22 -10.5 58.22 -14.61 Z M 64.67 -14.61 L 64.67 -14.61 Q 64.67 -11.04 67.2 -8.53 Q 69.73 -6.03 73.3 -6.03 L 73.3 -6.03 Q 76.82 -6.03 79.34 -8.53 Q 81.86 -11.04 81.86 -14.61 L 81.86 -14.61 Q 81.86 -18.14 79.34 -20.66 Q 76.82 -23.18 73.3 -23.18 L 73.3 -23.18 Q 69.73 -23.18 67.2 -20.67 Q 64.67 -18.16 64.67 -14.61 Z M 99.9 0 L 92.8 0 L 92.8 -29.25 L 106.3 -29.25 Q 109.01 -29.25 111.17 -28.29 Q 113.34 -27.34 114.67 -25.73 Q 116 -24.12 116.71 -22.14 Q 117.41 -20.16 117.41 -17.97 L 117.41 -17.97 Q 117.41 -16.23 116.98 -14.58 Q 116.55 -12.93 115.64 -11.48 Q 114.72 -10.04 113.42 -8.95 Q 112.12 -7.87 110.28 -7.24 Q 108.44 -6.61 106.26 -6.61 L 106.26 -6.61 L 99.9 -6.61 L 99.9 0 Z M 99.9 -22.7 L 99.9 -13.12 L 105.51 -13.12 Q 107.69 -13.12 108.98 -14.38 Q 110.27 -15.64 110.27 -17.97 L 110.27 -17.97 Q 110.27 -20.26 108.99 -21.46 Q 107.71 -22.65 105.51 -22.7 L 105.51 -22.7 L 99.9 -22.7 Z M 145.23 0 L 122.83 0 L 122.83 -29.25 L 129.88 -29.25 L 129.88 -6.53 L 145.23 -6.53 L 145.23 0 Z M 172.65 0 L 150.25 0 L 150.25 -29.25 L 172.65 -29.25 L 172.65 -22.7 L 157.3 -22.7 L 157.3 -17.68 L 170.11 -17.68 L 170.11 -11.57 L 157.3 -11.57 L 157.3 -6.53 L 172.65 -6.53 L 172.65 0 Z M 177.19 -8.25 L 177.19 -8.25 Q 177.19 -12.05 181.24 -15.87 L 181.24 -15.87 Q 180.02 -16.99 179.17 -18.61 Q 178.32 -20.24 178.32 -22.02 L 178.32 -22.02 Q 178.32 -23.54 179.01 -24.9 Q 179.71 -26.27 180.99 -27.36 Q 182.27 -28.45 184.29 -29.1 Q 186.32 -29.75 188.8 -29.75 L 188.8 -29.75 Q 191.25 -29.75 193.22 -29.11 Q 195.18 -28.47 196.38 -27.48 Q 197.57 -26.5 198.37 -25.24 Q 199.17 -23.98 199.47 -22.83 Q 199.78 -21.69 199.78 -20.64 L 199.78 -20.64 L 193.06 -20.64 Q 193.06 -21.96 192.08 -23.02 Q 191.11 -24.08 189.2 -24.08 L 189.2 -24.08 Q 187.85 -24.08 186.84 -23.55 Q 185.84 -23.01 185.84 -22.11 L 185.84 -22.11 Q 185.84 -20.56 189.32 -17.41 L 189.32 -17.41 Q 194.59 -12.74 196.38 -11.13 L 196.38 -11.13 Q 196.59 -12.35 196.59 -14.24 L 196.59 -14.24 L 203.28 -14.24 Q 203.28 -9.6 201.63 -6.53 L 201.63 -6.53 L 204.71 -3.78 L 199.86 0.42 L 197.36 -1.81 Q 193.94 0.52 189.2 0.52 L 189.2 0.52 Q 184.03 0.52 180.61 -1.92 Q 177.19 -4.37 177.19 -8.25 Z M 184.6 -9.15 L 184.6 -9.15 Q 184.6 -7.58 185.97 -6.58 Q 187.35 -5.58 189.49 -5.58 L 189.49 -5.58 Q 191.15 -5.58 192.41 -6.11 L 192.41 -6.11 L 185.92 -11.78 Q 184.6 -10.6 184.6 -9.15 Z M 216.74 0 L 209.69 0 L 209.69 -29.25 L 217.5 -29.25 L 227.7 -7.79 L 237.84 -29.25 L 245.72 -29.25 L 245.72 0 L 238.62 0 L 238.62 -14.93 L 231.61 0 L 223.73 0 L 216.74 -14.93 L 216.74 0 Z M 250.74 -15.01 L 250.74 -15.01 L 250.74 -29.25 L 257.79 -29.25 L 257.79 -15.01 Q 257.79 -10.75 259.57 -8.39 Q 261.36 -6.03 264.68 -6.03 L 264.68 -6.03 Q 267.97 -6.03 269.89 -8.42 Q 271.82 -10.81 271.82 -15.01 L 271.82 -15.01 L 271.82 -29.25 L 278.95 -29.25 L 278.95 -15.01 Q 278.95 -11.44 277.87 -8.5 Q 276.79 -5.56 274.88 -3.6 Q 272.97 -1.64 270.36 -0.56 Q 267.74 0.52 264.68 0.52 L 264.68 0.52 Q 258.38 0.52 254.56 -3.65 Q 250.74 -7.83 250.74 -15.01 Z M 282.1 -10.23 L 282.1 -10.23 L 289.12 -10.23 Q 289.14 -10.04 289.21 -9.72 Q 289.28 -9.41 289.69 -8.61 Q 290.1 -7.81 290.72 -7.2 Q 291.34 -6.59 292.6 -6.09 Q 293.86 -5.58 295.48 -5.58 L 295.48 -5.58 Q 297.66 -5.58 298.72 -6.35 Q 299.78 -7.12 299.78 -8.17 L 299.78 -8.17 Q 299.78 -8.71 299.48 -9.15 Q 299.17 -9.6 298.76 -9.89 Q 298.35 -10.18 297.58 -10.47 Q 296.8 -10.75 296.21 -10.91 Q 295.63 -11.06 294.62 -11.32 L 294.62 -11.32 Q 290.44 -12.3 288.47 -13.12 L 288.47 -13.12 Q 282.54 -15.58 282.54 -20.47 L 282.54 -20.47 Q 282.54 -23.1 284.13 -25.23 Q 285.71 -27.36 288.43 -28.55 Q 291.15 -29.75 294.45 -29.75 L 294.45 -29.75 Q 297.18 -29.75 299.46 -28.87 Q 301.73 -27.99 303.15 -26.57 Q 304.57 -25.15 305.34 -23.44 Q 306.1 -21.73 306.1 -19.99 L 306.1 -19.99 L 299.09 -19.99 Q 299.09 -21.23 297.78 -22.33 Q 296.46 -23.43 294.37 -23.43 L 294.37 -23.43 Q 292.62 -23.43 291.15 -22.71 Q 289.68 -21.98 289.68 -20.81 L 289.68 -20.81 Q 289.68 -19.82 290.95 -19.24 Q 292.22 -18.67 295.73 -17.76 L 295.73 -17.76 Q 299.72 -16.73 301.48 -15.94 L 301.48 -15.94 Q 306.27 -13.77 306.77 -9.64 L 306.77 -9.64 Q 306.84 -9.11 306.84 -8.57 L 306.84 -8.57 Q 306.84 -4.43 303.57 -1.95 Q 300.31 0.52 295.1 0.52 L 295.1 0.52 Q 292.45 0.52 290.24 -0.16 Q 288.02 -0.84 286.55 -1.94 Q 285.08 -3.04 284.06 -4.47 Q 283.03 -5.9 282.57 -7.36 Q 282.1 -8.82 282.1 -10.23 Z M 319.04 0 L 311.98 0 L 311.98 -29.25 L 319.04 -29.25 L 319.04 0 Z M 324.14 -14.84 L 324.14 -14.84 Q 324.14 -17.87 325.33 -20.6 Q 326.53 -23.33 328.61 -25.34 Q 330.69 -27.36 333.65 -28.55 Q 336.61 -29.75 339.97 -29.75 L 339.97 -29.75 Q 344.55 -29.75 348.13 -27.79 Q 351.71 -25.83 353.72 -22.44 L 353.72 -22.44 L 347.74 -18.96 Q 346.67 -21.02 344.67 -22.2 Q 342.68 -23.39 339.97 -23.39 L 339.97 -23.39 Q 336.17 -23.39 333.72 -20.94 Q 331.28 -18.5 331.28 -14.84 L 331.28 -14.84 Q 331.28 -12.53 332.37 -10.54 Q 333.46 -8.55 335.47 -7.33 Q 337.47 -6.11 339.97 -6.11 L 339.97 -6.11 Q 342.57 -6.11 344.56 -7.31 Q 346.54 -8.5 347.65 -10.54 L 347.65 -10.54 L 353.64 -7.1 Q 351.58 -3.65 348.01 -1.56 Q 344.44 0.52 339.97 0.52 L 339.97 0.52 Q 336.59 0.52 333.64 -0.67 Q 330.69 -1.87 328.61 -3.92 Q 326.53 -5.96 325.33 -8.8 Q 324.14 -11.63 324.14 -14.84 Z" stroke-linecap="round" />
</g>
<g transform="matrix(1.9699870022450665 0 0 1.9699870022450665 635.4553809565766 466.0414595410209)" id="tagline-0a778122-ba1b-4c4e-8af7-0c89fc169ab9-logo-path"  >
<path style="stroke: rgb(255,255,255); stroke-width: 0; stroke-dasharray: none; stroke-linecap: butt; stroke-dashoffset: 0; stroke-linejoin: miter; stroke-miterlimit: 4; fill: rgb(255,190,88); fill-rule: nonzero; opacity: 1;"  paint-order="stroke"  transform=" translate(-22.264999999999997, 35.949999999999996)" d="M 2.52 -8.79 L 2.52 -8.79 Q 2.52 -11.19 3.19 -12.98 Q 3.87 -14.77 4.8 -15.82 L 4.8 -15.82 Q 7.09 -15.35 8.7 -15.18 Q 10.31 -15 12.25 -15 L 12.25 -15 Q 16.93 -15 18.96 -17.34 Q 20.98 -19.69 20.98 -24.26 L 20.98 -24.26 L 20.98 -72.71 Q 22.32 -72.95 25.2 -73.39 Q 28.07 -73.83 30.7 -73.83 L 30.7 -73.83 Q 33.46 -73.83 35.57 -73.39 Q 37.68 -72.95 39.11 -71.87 Q 40.55 -70.78 41.28 -68.88 Q 42.01 -66.97 42.01 -63.87 L 42.01 -63.87 L 42.01 -19.45 Q 42.01 -8.79 35.89 -3.43 Q 29.77 1.93 17.87 1.93 L 17.87 1.93 Q 11.66 1.93 7.79 0 L 7.79 0 Q 5.04 -1.35 3.78 -3.6 Q 2.52 -5.86 2.52 -8.79 Z" stroke-linecap="round" />
</g>
</svg>