<?xml version="1.0" encoding="iso-8859-1"?>
<!-- Generator: Adobe Illustrator 19.0.0, SVG Export Plug-In . SVG Version: 6.00 Build 0)  -->
<svg version="1.1" id="Layer_1" xmlns="http://www.w3.org/2000/svg" xmlns:xlink="http://www.w3.org/1999/xlink" x="0px" y="0px"
	 viewBox="0 0 512 512" style="enable-background:new 0 0 512 512;" xml:space="preserve">
<g>
	<g>
		<path d="M505.421,41.409L470.593,6.581c-4.462-4.462-10.594-6.842-16.898-6.558s-12.197,3.204-16.24,8.049l-43.436,52.046
			c-3.596,4.308-3.311,10.648,0.658,14.615l0.911,0.911l-153.93,153.93c-34.934-21.777-75.492-22.453-99.074,1.13
			c-6.424,6.424-11.048,14.109-13.934,22.597c-5.536,16.276-20.405,27.574-37.57,28.547c-25.401,1.442-49.525,11.256-67.98,29.711
			C-20.376,355.034,2.328,411.729,51.3,460.7c48.972,48.972,105.665,71.676,149.141,28.199
			c18.455-18.455,28.269-42.578,29.711-67.979c0.974-17.163,12.273-32.034,28.547-37.57c8.487-2.887,16.172-7.51,22.597-13.934
			c23.582-23.582,22.906-64.14,1.13-99.074l153.93-153.93l0.911,0.911c3.968,3.968,10.307,4.253,14.615,0.658l52.046-43.436
			c4.844-4.043,7.766-9.936,8.049-16.24C512.262,52.002,509.882,45.87,505.421,41.409z M149.377,433.047
			c-3.312,3.312-7.652,4.968-11.992,4.968c-4.34,0-8.681-1.655-11.992-4.968l-46.438-46.438c-6.623-6.622-6.623-17.362,0-23.985
			c6.622-6.623,17.362-6.623,23.985,0l46.438,46.438C156.002,415.685,156.002,426.424,149.377,433.047z M220.122,351.14
			c-16.364,16.364-42.897,16.364-59.261,0c-16.364-16.364-16.364-42.897,0-59.261c16.364-16.364,42.897-16.364,59.261,0
			C236.486,308.244,236.486,334.776,220.122,351.14z"/>
	</g>
</g>
<g>
</g>
<g>
</g>
<g>
</g>
<g>
</g>
<g>
</g>
<g>
</g>
<g>
</g>
<g>
</g>
<g>
</g>
<g>
</g>
<g>
</g>
<g>
</g>
<g>
</g>
<g>
</g>
<g>
</g>
</svg>
