<svg id="Layer_1" height="512" viewBox="0 0 512 512" width="512" xmlns="http://www.w3.org/2000/svg" data-name="Layer 1"><path d="m454.508 230.524-98.347-13.372c-1.838 18.207-5.457 84.952 29.827 152.814 6.872 13.217 8.717 27.115 4.7 35.407a13.519 13.519 0 0 1 -9.727 7.679 22.853 22.853 0 0 1 -4.293.422c-18.1 0-24.839-23.734-27.183-32.085l-107.033-325.848c-.02-.061-.039-.122-.056-.183-14.608-50.965-107.77-39.693-137.547-34.7l.21 12.942c22.713-2.363 105.632-7.763 115.131 37.96l87.252 375.25a75.273 75.273 0 0 0 16.68 28.211c16.527 17.5 39.333 24.114 67.775 19.643 34.752-5.46 56.2-35.123 62.081-62.166a4.761 4.761 0 0 1 .105-.48c.12-.441 11.9-45.408-7.236-108.867-15.047-49.911-1.298-79.757 7.661-92.627zm-218.454-155.058a7.038 7.038 0 0 1 -3.425.892 7.092 7.092 0 1 1 3.425-.892zm16.855 57.558a8.046 8.046 0 0 1 -3.684.888 7.06 7.06 0 0 1 -6.188-3.647 7.176 7.176 0 0 1 2.991-9.636 7.525 7.525 0 0 1 9.972 2.76c1 3.42.327 7.741-3.091 9.635zm19.2 64.671a7.261 7.261 0 0 1 -3.482.887 7.146 7.146 0 0 1 -6.245-3.647 7.068 7.068 0 0 1 2.734-9.636 7.348 7.348 0 0 1 5.514-.614 7.52 7.52 0 0 1 4.37 3.375 7.047 7.047 0 0 1 -2.889 9.64zm26.291 81.449a7.087 7.087 0 1 1 -.615-5.389 7.043 7.043 0 0 1 .615 5.389z"/><path d="m64.566 24.49a7.292 7.292 0 0 0 -3.461 1.827c-2.705 4.716-7.995 10.224-14.663 15.243a62 62 0 0 1 -8.233 5.191c11.262-1.192 32.912-4.5 52.714-7.918a16.4 16.4 0 0 0 4.189-1.881l-.235-14.5c-7.419.441-27.128 1.648-30.311 2.038z"/><path d="m467.386 206.273-113.259-15.4a7.536 7.536 0 0 0 -1-.067 7.413 7.413 0 0 0 -7.33 6.405l-.129.951a7.4 7.4 0 0 0 6.332 8.338l113.26 15.4a7.4 7.4 0 0 0 8.331-6.338l.129-.952a7.411 7.411 0 0 0 -6.334-8.337z"/></svg>