<?xml version="1.0" encoding="iso-8859-1"?>
<!-- Generator: Adobe Illustrator 19.0.0, SVG Export Plug-In . SVG Version: 6.00 Build 0)  -->
<svg version="1.1" id="Layer_1" xmlns="http://www.w3.org/2000/svg" xmlns:xlink="http://www.w3.org/1999/xlink" x="0px" y="0px"
	 viewBox="0 0 512 512" style="enable-background:new 0 0 512 512;" xml:space="preserve">
<g>
	<g>
		<path d="M368.896,220.571h26.859c0.59-11.12,0.892-22.241,0.892-33.361h-27.75c-9.136,0-16.543-7.406-16.543-16.543
			s7.406-16.543,16.543-16.543h26.873c-0.583-11.12-1.466-22.241-2.639-33.361h-24.234c-9.136,0-16.543-7.407-16.543-16.543
			c0-9.136,7.406-16.543,16.543-16.543h19.873c-2.042-12.927-4.468-25.853-7.306-38.78c-3.141-14.307-13.332-26.051-27.062-31.152
			c-3.759-1.397-7.518-2.703-11.277-3.94v32.79c0,9.136-7.406,16.543-16.543,16.543s-16.543-7.407-16.543-16.543V4.992
			C297.54,2.442,285.041,0.781,272.542,0v46.597c0,9.136-7.407,16.543-16.543,16.543c-9.136,0-16.543-7.407-16.543-16.543V0
			c-12.499,0.781-24.998,2.442-37.497,4.992v41.603c0,9.136-7.407,16.543-16.543,16.543c-9.136,0-16.543-7.406-16.543-16.543V13.806
			c-3.759,1.236-7.517,2.543-11.276,3.938c-13.71,5.093-23.926,16.867-27.062,31.152c-2.838,12.927-5.264,25.853-7.306,38.78h19.873
			c9.136,0,16.543,7.406,16.543,16.543s-7.406,16.543-16.543,16.543H118.87c-1.173,11.12-2.056,22.241-2.639,33.361h26.873
			c9.136,0,16.543,7.407,16.543,16.543c0,9.136-7.406,16.543-16.543,16.543h-27.75c0,11.12,0.302,22.241,0.892,33.361h26.859
			c9.136,0,16.543,7.406,16.543,16.543s-7.406,16.543-16.543,16.543h-24.232c1.173,11.12,2.643,22.241,4.405,33.361h19.826
			c9.136,0,16.543,7.407,16.543,16.543c0,9.136-7.406,16.543-16.543,16.543h-13.715c0.379,1.797,0.752,3.594,1.146,5.391
			c3.141,14.307,13.332,26.051,27.062,31.152c12.839,4.77,25.679,8.592,38.517,11.495c-2.76,4.289-4.367,9.39-4.367,14.869
			c0,15.203,12.325,27.528,27.527,27.528h11.909v46.408h-48.855c-15.203,0-27.527,12.325-27.527,27.528
			c0,15.203,12.325,27.528,27.527,27.528h147.339c15.203,0,27.528-12.325,27.528-27.528c0-15.203-12.325-27.528-27.528-27.528
			h-48.856v-46.407h11.91c15.203,0,27.528-12.325,27.528-27.528c0-5.479-1.608-10.581-4.367-14.87
			c12.839-2.903,25.679-6.725,38.518-11.495c13.71-5.093,23.926-16.867,27.062-31.151c0.394-1.797,0.768-3.594,1.146-5.391h-13.712
			c-9.136,0-16.543-7.406-16.543-16.543s7.406-16.543,16.543-16.543h19.825c1.762-11.12,3.232-22.241,4.405-33.361h-24.231
			c-9.136,0-16.543-7.407-16.543-16.543C352.354,227.978,359.76,220.571,368.896,220.571z M300.812,320.103h-89.622
			c-9.136,0-16.543-7.406-16.543-16.543s7.407-16.543,16.543-16.543h89.622c9.136,0,16.543,7.406,16.543,16.543
			S309.948,320.103,300.812,320.103z M300.812,253.656h-89.622c-9.136,0-16.543-7.407-16.543-16.543
			c0-9.136,7.407-16.543,16.543-16.543h89.622c9.136,0,16.543,7.407,16.543,16.543C317.354,246.25,309.948,253.656,300.812,253.656z
			 M300.812,187.21h-89.622c-9.136,0-16.543-7.406-16.543-16.543s7.407-16.543,16.543-16.543h89.622
			c9.136,0,16.543,7.406,16.543,16.543C317.354,179.803,309.948,187.21,300.812,187.21z M300.812,120.762h-89.622
			c-9.136,0-16.543-7.406-16.543-16.543s7.407-16.543,16.543-16.543h89.622c9.136,0,16.543,7.406,16.543,16.543
			S309.948,120.762,300.812,120.762z"/>
	</g>
</g>
<g>
</g>
<g>
</g>
<g>
</g>
<g>
</g>
<g>
</g>
<g>
</g>
<g>
</g>
<g>
</g>
<g>
</g>
<g>
</g>
<g>
</g>
<g>
</g>
<g>
</g>
<g>
</g>
<g>
</g>
</svg>
