<?xml version="1.0" encoding="iso-8859-1"?>
<!-- Generator: Adobe Illustrator 19.0.0, SVG Export Plug-In . SVG Version: 6.00 Build 0)  -->
<svg version="1.1" id="Capa_1" xmlns="http://www.w3.org/2000/svg" xmlns:xlink="http://www.w3.org/1999/xlink" x="0px" y="0px"
	 viewBox="0 0 58.006 58.006" style="enable-background:new 0 0 58.006 58.006;" xml:space="preserve">
<g>
	<path d="M13.792,23.963c-0.448-0.099-0.789-0.48-0.789-0.957c0-0.552,0.448-1,1-1s1,0.448,1,1c0,0.182-0.062,0.344-0.147,0.491
		c1.918-0.889,3.689-2.09,5.208-3.608c1.521-1.521,2.716-3.264,3.6-5.145c-0.177,0.158-0.405,0.262-0.661,0.262
		c-0.552,0-1-0.448-1-1c0-0.552,0.448-1,1-1c0.549,0,0.993,0.443,0.998,0.991c1-2.409,1.487-5.029,1.381-7.745l0-2.477
		C22.592,1.341,19.069,0,15.331,0C11.237,0,7.388,1.594,4.492,4.489c-5.661,5.662-5.95,14.682-0.884,20.699h2.398
		C8.702,25.347,11.352,24.911,13.792,23.963z M23.003,7.006c0.552,0,1,0.448,1,1c0,0.552-0.448,1-1,1s-1-0.448-1-1
		C22.003,7.454,22.451,7.006,23.003,7.006z M20.003,4.006c0.552,0,1,0.448,1,1c0,0.552-0.448,1-1,1s-1-0.448-1-1
		C19.003,4.454,19.451,4.006,20.003,4.006z M20.003,10.006c0.552,0,1,0.448,1,1c0,0.552-0.448,1-1,1s-1-0.448-1-1
		C19.003,10.454,19.451,10.006,20.003,10.006z M20.003,16.006c0.552,0,1,0.448,1,1c0,0.552-0.448,1-1,1s-1-0.448-1-1
		C19.003,16.454,19.451,16.006,20.003,16.006z M17.003,1.006c0.552,0,1,0.448,1,1c0,0.552-0.448,1-1,1s-1-0.448-1-1
		C16.003,1.454,16.451,1.006,17.003,1.006z M17.003,7.006c0.552,0,1,0.448,1,1c0,0.552-0.448,1-1,1s-1-0.448-1-1
		C16.003,7.454,16.451,7.006,17.003,7.006z M17.003,13.006c0.552,0,1,0.448,1,1c0,0.552-0.448,1-1,1s-1-0.448-1-1
		C16.003,13.454,16.451,13.006,17.003,13.006z M17.003,19.006c0.552,0,1,0.448,1,1c0,0.552-0.448,1-1,1s-1-0.448-1-1
		C16.003,19.454,16.451,19.006,17.003,19.006z M14.003,4.006c0.552,0,1,0.448,1,1c0,0.552-0.448,1-1,1s-1-0.448-1-1
		C13.003,4.454,13.451,4.006,14.003,4.006z M14.003,10.006c0.552,0,1,0.448,1,1c0,0.552-0.448,1-1,1s-1-0.448-1-1
		C13.003,10.454,13.451,10.006,14.003,10.006z M14.003,16.006c0.552,0,1,0.448,1,1c0,0.552-0.448,1-1,1s-1-0.448-1-1
		C13.003,16.454,13.451,16.006,14.003,16.006z M8.003,24.006c-0.552,0-1-0.448-1-1c0-0.552,0.448-1,1-1s1,0.448,1,1
		C9.003,23.558,8.555,24.006,8.003,24.006z M8.003,18.006c-0.552,0-1-0.448-1-1c0-0.552,0.448-1,1-1s1,0.448,1,1
		C9.003,17.558,8.555,18.006,8.003,18.006z M11.003,21.006c-0.552,0-1-0.448-1-1c0-0.552,0.448-1,1-1s1,0.448,1,1
		C12.003,20.558,11.555,21.006,11.003,21.006z M11.003,15.006c-0.552,0-1-0.448-1-1c0-0.552,0.448-1,1-1s1,0.448,1,1
		C12.003,14.558,11.555,15.006,11.003,15.006z M12.003,8.006c0,0.552-0.448,1-1,1s-1-0.448-1-1c0-0.552,0.448-1,1-1
		S12.003,7.454,12.003,8.006z M10.003,3.006c0.552,0,1,0.448,1,1c0,0.552-0.448,1-1,1s-1-0.448-1-1
		C9.003,3.454,9.451,3.006,10.003,3.006z M9.003,11.006c0,0.552-0.448,1-1,1s-1-0.448-1-1c0-0.552,0.448-1,1-1
		S9.003,10.454,9.003,11.006z M3.003,10.006c0-0.552,0.448-1,1-1s1,0.448,1,1c0,0.552-0.448,1-1,1S3.003,10.558,3.003,10.006z
		 M5.003,21.006c-0.552,0-1-0.448-1-1c0-0.552,0.448-1,1-1s1,0.448,1,1C6.003,20.558,5.555,21.006,5.003,21.006z M5.003,15.006
		c-0.552,0-1-0.448-1-1c0-0.552,0.448-1,1-1s1,0.448,1,1C6.003,14.558,5.555,15.006,5.003,15.006z M7.003,6.006c0.552,0,1,0.448,1,1
		c0,0.552-0.448,1-1,1s-1-0.448-1-1C6.003,6.454,6.451,6.006,7.003,6.006z"/>
	<polygon points="52.552,43.926 43.832,52.646 45.342,53.964 53.899,45.407 	"/>
	<path d="M56.757,48.546l-1.51-1.659l-8.395,8.395l1.718,1.499c0.928,0.79,2.11,1.224,3.328,1.224c1.374,0,2.665-0.535,3.636-1.506
		l0.964-0.964C58.377,53.657,58.501,50.598,56.757,48.546z"/>
	<path d="M30.141,19.304c1.218-4.523,0.328-9.498-2.76-13.424v0.332c0.22,5.605-1.932,11.12-5.903,15.091
		c-3.798,3.798-8.968,5.918-14.337,5.918c-0.397,0-0.795-0.012-1.193-0.035H5.66c2.73,2.229,6.15,3.463,9.688,3.463
		c0.001,0,0.001,0,0.001,0c1.004,0,1.992-0.098,2.956-0.286l24.017,20.964l8.882-8.882L30.141,19.304z M33.003,31.006
		c0,0.265-0.105,0.52-0.293,0.707l-1,1c-0.188,0.188-0.441,0.293-0.707,0.293h-2c-0.266,0-0.52-0.105-0.707-0.293l-1-1
		c-0.188-0.188-0.293-0.442-0.293-0.707v-2c0-0.265,0.105-0.52,0.293-0.707l1-1c0.188-0.188,0.441-0.293,0.707-0.293h2
		c0.266,0,0.52,0.105,0.707,0.293l1,1c0.188,0.188,0.293,0.442,0.293,0.707V31.006z M40.003,38.006c0,0.265-0.105,0.52-0.293,0.707
		l-1,1c-0.188,0.188-0.441,0.293-0.707,0.293h-2c-0.266,0-0.52-0.105-0.707-0.293l-1-1c-0.188-0.188-0.293-0.442-0.293-0.707v-2
		c0-0.265,0.105-0.52,0.293-0.707l1-1c0.188-0.188,0.441-0.293,0.707-0.293h2c0.266,0,0.52,0.105,0.707,0.293l1,1
		c0.188,0.188,0.293,0.442,0.293,0.707V38.006z"/>
</g>
<g>
</g>
<g>
</g>
<g>
</g>
<g>
</g>
<g>
</g>
<g>
</g>
<g>
</g>
<g>
</g>
<g>
</g>
<g>
</g>
<g>
</g>
<g>
</g>
<g>
</g>
<g>
</g>
<g>
</g>
</svg>
