<svg id="Layer_1" height="512" viewBox="0 0 512 512" width="512" xmlns="http://www.w3.org/2000/svg" data-name="Layer 1"><path d="m420.456 419a148.758 148.758 0 0 0 -19.048 22.926c-3.793 5.856-5.144 9.524-5.519 11.363 1.837-.379 5.5-1.738 11.35-5.542a163.683 163.683 0 0 0 41.938-42.023c3.793-5.855 5.144-9.523 5.52-11.362-1.838.379-5.5 1.739-11.35 5.543a148.748 148.748 0 0 0 -22.891 19.095z"/><path d="m485.312 352.961c-6.1 0-14.562 2.5-24.4 7.36-17.663 8.723-37.722 23.879-56.481 42.679s-33.878 38.89-42.566 56.57c-7.676 15.62-9.427 27.77-4.684 32.5s16.885 2.956 32.492-4.751c17.662-8.723 37.722-23.88 56.482-42.677s33.878-38.889 42.566-56.569c7.675-15.62 9.426-27.771 4.684-32.5-1.752-1.752-4.516-2.612-8.093-2.612zm-48.105 82.751c-9.223 9.241-18.842 17.062-27.087 22.024-6.3 3.792-11.393 5.682-15.365 5.682a8.755 8.755 0 0 1 -6.473-2.514c-4.194-4.184-3.172-11.329 3.126-21.842 4.946-8.255 12.747-17.891 21.97-27.132 3.789-3.8 37.351-36.749 48.926-25.195 11.577 11.556-21.304 45.181-25.097 48.977z"/><path d="m338.356 363.268c10.905 15.054 18.116 35.514 21.445 60.857.772 5.88 1.238 11.337 1.511 16.114 9.187-14.53 21.588-29.822 36.041-44.3a271.656 271.656 0 0 1 39.529-33.042c-37.009-2.555-66.988-19.42-74.388-23.92-18.489 3.598-23.094 18.973-24.138 24.291z"/><path d="m28.13 70.558a1.439 1.439 0 0 0 1.035-.429l39.612-39.612a1.468 1.468 0 0 0 0-2.073l-10.664-10.664a1.469 1.469 0 0 0 -2.072 0l-39.612 39.614a1.462 1.462 0 0 0 0 2.069l10.665 10.665a1.437 1.437 0 0 0 1.036.43z"/><path d="m263.257 302.2-164.493-164.53a59.974 59.974 0 0 0 -51.177 101.544l114.267 114.313a59.182 59.182 0 0 0 42.087 17.473h.157a60.047 60.047 0 0 0 59.159-68.8zm-32.767 35.53a37.361 37.361 0 0 1 -52.777 0l-114.269-114.267a37.32 37.32 0 0 1 52.779-52.778l114.267 114.268a37.316 37.316 0 0 1 0 52.778z"/><path d="m44.342 69.094 285.929 285.929a39.621 39.621 0 0 1 23.029-23.777l-285.557-285.553z"/><path d="m129.554 376.2 23.615-23.615-7.07-7.071-23.616 23.616a5 5 0 1 0 7.071 7.071z"/><path d="m163.022 298.344h64.64v10h-64.64z" transform="matrix(.707 -.707 .707 .707 -157.277 226.95)"/><path d="m267.438 238.318 18.937-18.937 11.319 11.319a5 5 0 1 0 7.071-7.071l-28.949-28.948a5 5 0 1 0 -7.07 7.071l10.554 10.558-18.937 18.937z"/><path d="m79.55 331.2a4.984 4.984 0 0 0 3.535-1.464l23.615-23.619-7.07-7.071-23.615 23.616a5 5 0 0 0 3.535 8.538z"/><path d="m116.552 251.874h64.639v10h-64.639z" transform="matrix(.707 -.707 .707 .707 -138.033 180.504)"/><path d="m220.968 191.849 18.938-18.938 11.32 11.32a5 5 0 0 0 7.07-7.071l-28.947-28.949a5 5 0 0 0 -7.071 7.072l10.557 10.557-18.935 18.937z"/><path d="m29.546 283.263a5 5 0 0 0 7.07 0l23.615-23.615-7.07-7.071-23.615 23.614a5 5 0 0 0 0 7.072z"/><path d="m70.083 205.406h64.64v10h-64.64z" transform="matrix(.707 -.707 .707 .707 -118.786 134.038)"/><path d="m174.5 145.38 18.938-18.938 11.32 11.32a5 5 0 1 0 7.07-7.072l-28.948-28.947a5 5 0 0 0 -7.07 7.071l10.557 10.557-18.937 18.938z"/></svg>